P3
44 51
255
165 37 37 171 39 22 149 118 23 120 238 44 124 202 52 111 132 33 117 71 14 153 30 2 191 11 0 222 2 0 246 0 0 255 0 0 255 0 0 255 0 0 254 0 0 229 4 0 192 24 3 138 64 10 82 123 22 65 178 35 78 208 42 87 200 37 179 236 68 207 253 80 147 224 57 75 190 31 56 172 25 86 124 20 191 75 15 187 174 43 173 252 70 187 255 85 210 255 89 219 255 87 217 250 83 207 249 80 190 247 76 185 247 76 199 248 81 220 255 89 207 255 90 154 230 66 123 112 20 188 15 0 
188 26 9 169 87 9 116 187 32 98 183 40 127 71 16 161 1 0 213 0 0 255 0 0 255 4 1 255 9 2 255 16 4 254 25 6 253 31 7 254 29 7 254 21 5 255 14 3 255 1 0 251 3 1 185 33 7 92 80 15 29 126 20 46 176 25 148 231 59 202 253 78 135 215 52 37 164 14 29 155 11 103 179 38 170 210 61 189 255 82 208 255 88 218 253 85 199 247 76 160 237 65 128 223 55 111 208 48 99 194 43 98 187 41 102 191 43 120 205 51 161 227 68 170 249 78 119 224 54 156 63 11 
200 70 12 140 142 29 105 121 25 157 13 1 218 0 0 255 6 2 255 23 6 254 41 10 249 59 15 248 75 19 249 89 22 250 97 24 250 100 25 249 97 24 250 92 23 249 81 20 252 60 15 255 29 8 255 0 1 219 0 0 69 31 4 0 91 4 70 179 29 159 235 61 107 203 41 15 150 5 56 172 21 189 244 75 227 255 97 214 251 86 181 241 71 137 224 55 98 204 42 70 183 34 57 156 27 67 118 18 89 90 14 98 77 11 89 79 10 78 93 13 81 121 22 94 179 41 101 225 55 120 133 27 
167 95 22 151 67 14 198 6 1 250 5 1 255 34 8 254 72 18 251 108 27 250 137 34 251 158 39 252 172 43 253 177 44 253 173 44 253 168 42 252 161 39 252 150 37 253 146 35 253 138 33 249 103 26 245 46 12 246 4 1 228 0 2 69 20 2 0 84 0 51 168 22 50 179 19 42 171 16 141 216 54 246 255 95 182 243 70 106 206 42 50 168 25 20 138 19 36 116 20 89 91 18 141 52 10 177 9 2 198 0 0 200 0 0 197 0 0 188 0 0 163 1 0 123 31 3 90 88 16 90 121 24 
191 41 9 218 20 5 251 36 9 255 86 21 253 128 33 252 166 42 253 183 46 253 191 47 253 197 48 254 201 50 254 202 51 253 202 51 253 202 50 253 205 51 254 207 51 253 170 41 246 115 27 235 79 18 229 70 16 231 61 14 248 23 6 229 0 3 62 24 3 0 89 1 0 144 0 53 191 19 133 226 51 100 197 42 4 134 9 0 94 4 19 55 3 74 23 2 144 5 1 202 0 0 229 0 0 224 5 1 216 19 4 216 24 6 214 21 6 211 16 4 211 6 1 207 0 0 183 3 0 157 24 5 
232 57 14 250 77 19 255 113 27 253 152 38 253 182 46 253 193 48 254 193 48 254 194 49 254 196 50 254 197 50 254 197 50 253 200 52 254 211 56 254 214 56 252 180 44 248 138 33 245 108 27 241 90 22 238 77 19 238 73 18 239 73 18 255 35 10 199 7 5 52 39 3 0 99 4 4 136 6 7 126 8 1 83 3 37 44 1 112 15 1 177 2 1 220 0 1 232 9 2 226 24 5 225 39 9 227 51 12 228 59 13 229 61 14 227 59 14 225 55 13 221 49 12 216 40 9 209 28 6 206 22 6 
252 99 25 254 119 29 252 154 38 252 188 47 253 192 48 254 193 48 254 194 49 254 196 50 253 198 51 253 199 51 254 205 54 254 215 61 253 204 57 251 161 41 248 124 31 248 116 30 248 121 31 249 123 32 247 111 29 242 88 22 238 74 18 245 75 19 255 41 12 154 25 6 32 37 4 5 47 3 74 35 1 140 19 2 198 11 4 229 11 4 235 21 6 238 35 9 238 50 13 235 64 16 234 73 17 236 77 18 238 82 19 238 83 19 237 83 19 236 81 20 233 76 19 228 68 17 223 57 14 220 46 11 
254 118 29 252 149 37 252 185 45 253 194 48 254 193 48 254 194 49 254 198 51 253 199 52 254 202 54 254 211 59 254 216 62 254 197 56 250 153 42 249 126 32 249 121 31 249 127 33 250 132 34 251 135 34 251 133 34 248 120 31 243 92 23 239 81 20 253 76 19 227 47 12 160 18 5 145 11 3 209 19 6 242 27 9 249 36 11 248 48 12 241 61 15 237 73 18 239 82 21 243 89 23 244 93 23 244 93 23 244 93 23 243 96 23 243 95 22 243 95 23 242 93 23 240 88 22 235 79 20 227 66 16 
252 134 33 252 176 43 253 198 48 254 193 47 253 195 49 253 199 51 253 202 53 254 204 57 254 213 64 254 217 66 253 196 57 252 153 40 250 126 31 251 133 34 251 142 36 251 142 36 251 140 35 251 138 35 251 139 35 251 140 36 249 125 32 244 91 22 242 84 21 248 71 18 248 49 12 251 41 11 255 52 14 250 57 14 237 68 17 237 81 20 243 91 22 245 95 24 245 96 24 245 97 25 246 97 24 246 97 24 245 95 24 245 97 24 244 97 24 244 97 23 244 97 23 244 95 24 243 91 23 237 84 20 
252 163 41 253 194 48 254 196 49 253 196 49 253 199 52 254 202 55 254 205 58 254 215 67 254 220 69 253 196 58 252 154 40 251 131 32 252 145 36 253 152 38 253 152 38 253 151 38 253 149 37 253 146 37 252 143 37 251 142 36 252 145 37 250 124 31 244 89 22 245 80 20 252 81 20 250 78 19 239 76 19 238 79 20 243 89 23 246 97 25 247 101 25 247 100 24 246 98 24 245 95 23 244 94 23 244 93 23 244 93 23 245 94 23 244 94 24 244 94 23 243 93 22 243 93 23 244 94 24 243 93 22 
253 187 47 254 200 50 253 195 49 253 200 52 254 203 55 255 205 60 255 214 67 254 224 72 253 198 58 252 156 39 252 137 33 254 153 39 254 160 41 254 159 40 254 160 40 255 161 40 254 159 40 254 157 40 254 155 39 253 151 38 253 147 37 253 151 38 250 121 30 246 89 22 243 77 19 241 77 19 242 80 20 246 102 25 249 111 28 248 106 27 246 99 24 245 95 23 246 94 23 245 94 24 245 94 24 245 95 24 245 95 24 245 95 24 245 95 23 244 95 24 244 94 23 244 95 23 244 95 23 237 78 19 
253 192 48 254 204 51 253 198 51 254 202 56 255 205 61 255 212 67 255 228 73 253 200 57 252 156 38 253 144 35 255 159 41 255 165 42 255 165 42 255 167 42 255 168 42 254 169 42 255 168 42 255 167 42 255 165 41 254 161 39 254 154 39 253 153 38 253 150 37 249 111 27 245 79 19 245 86 21 248 116 28 250 122 31 248 110 27 247 104 26 246 101 26 247 98 24 246 97 23 245 95 24 246 94 24 246 95 24 246 95 24 246 94 24 245 95 24 244 95 23 245 96 24 245 98 25 242 89 22 230 61 14 
252 165 41 253 202 52 254 209 58 255 203 61 255 210 66 255 229 73 254 202 59 253 157 38 254 149 36 255 162 42 255 168 42 255 167 41 255 167 42 255 168 42 255 169 42 254 168 42 255 168 42 255 169 42 255 169 42 255 168 41 254 162 40 254 155 38 253 156 38 251 135 33 249 114 28 249 118 29 250 129 32 249 116 29 248 110 27 247 105 26 247 102 26 246 100 24 247 97 23 246 96 24 245 95 24 245 95 24 246 95 24 246 95 24 245 94 24 245 96 23 246 101 24 244 95 25 234 68 18 225 38 0 
252 134 32 253 176 46 254 211 62 255 216 67 254 224 71 254 208 62 253 156 40 254 151 37 254 162 41 255 169 42 254 169 42 255 168 41 255 168 42 255 168 42 255 168 42 255 168 42 255 168 42 255 168 41 254 168 42 255 169 42 255 168 41 254 162 40 254 156 39 253 149 37 252 142 35 251 134 34 250 126 31 249 118 29 248 113 28 248 107 27 247 104 26 247 100 25 246 97 24 246 96 23 246 95 24 246 96 24 245 96 24 245 94 23 246 96 23 248 102 24 245 98 25 237 72 17 229 36 0 228 35 0 
252 132 31 253 148 37 253 186 52 255 227 70 255 226 69 253 164 43 254 147 36 255 161 40 255 169 42 254 169 42 255 168 41 255 168 42 255 167 42 255 167 42 255 167 42 255 167 42 255 167 42 255 167 42 255 167 41 254 168 42 255 169 42 255 167 41 254 160 40 254 153 38 253 147 37 252 138 35 251 128 32 250 121 30 249 115 28 248 109 27 247 105 26 247 102 25 247 98 24 246 97 23 247 96 24 247 95 23 246 95 23 246 98 24 247 102 25 245 94 23 239 74 15 233 55 9 233 65 26 241 133 102 
253 139 35 253 145 36 253 169 44 254 196 56 253 179 50 253 152 37 254 164 41 255 169 42 254 168 42 255 167 41 255 167 42 255 167 42 255 168 42 255 168 42 255 168 42 255 168 42 255 168 42 255 168 42 255 167 42 255 167 41 254 168 42 254 170 42 255 164 40 254 157 39 253 148 37 252 140 35 251 133 33 250 124 31 249 117 29 248 111 28 248 106 26 248 102 26 247 100 25 246 97 23 246 96 23 247 95 23 248 99 24 247 100 25 244 92 22 240 74 18 235 51 4 235 61 17 242 140 109 252 235 227 
252 144 36 253 160 41 254 166 42 252 140 35 251 109 27 253 147 36 254 173 43 255 175 43 255 171 42 255 168 42 255 167 41 255 167 41 255 167 41 255 167 41 255 167 42 255 168 42 255 168 42 255 168 42 255 168 42 255 167 42 255 167 42 255 169 42 255 167 41 254 161 40 253 152 38 252 143 36 251 135 33 250 126 32 249 119 30 249 112 28 248 106 26 247 103 26 247 100 25 247 98 24 247 98 24 247 98 24 248 98 24 244 88 21 240 72 18 237 63 15 235 53 5 236 64 18 243 135 101 251 227 219 
253 149 38 254 168 43 253 154 39 249 96 23 250 78 19 254 119 29 254 148 36 255 167 41 255 172 42 255 172 42 255 171 42 255 170 42 255 169 42 255 168 41 255 167 41 255 167 41 255 167 41 255 167 41 255 167 41 255 167 41 255 167 41 255 168 41 254 168 42 255 164 40 254 155 38 252 145 36 251 136 34 250 128 32 250 120 31 249 114 29 248 108 27 248 104 26 248 101 25 248 99 25 247 99 24 246 95 23 243 84 20 238 68 16 237 63 15 238 67 16 237 68 16 236 58 7 235 55 7 239 117 86 
253 160 41 253 158 40 249 117 30 248 81 21 251 101 24 254 101 25 255 107 26 254 126 31 255 148 37 255 166 41 255 174 43 255 174 43 255 171 42 255 170 42 255 169 42 255 169 42 255 168 42 255 168 42 255 168 42 255 168 42 255 168 42 255 168 42 255 169 42 255 165 40 254 156 39 252 146 37 251 138 35 250 130 32 250 122 31 249 115 29 248 110 28 248 107 27 248 104 26 247 98 24 244 88 21 242 76 19 237 65 15 237 65 15 238 68 16 238 68 16 238 68 18 237 64 15 234 48 2 230 30 0 
254 159 41 250 131 33 246 88 22 248 88 22 253 107 26 254 111 27 255 109 27 255 103 26 255 106 26 255 120 29 255 138 34 255 155 38 255 164 41 255 171 42 255 176 43 255 176 44 255 174 43 255 172 42 255 171 42 255 170 43 255 171 43 255 170 43 254 171 42 255 167 41 254 159 40 252 150 38 251 141 36 250 134 33 250 127 32 250 121 30 249 111 27 247 99 25 244 88 22 242 78 19 240 69 16 238 65 15 238 66 16 239 67 17 239 67 17 238 66 16 237 65 15 236 64 16 235 62 15 232 47 1 
251 141 36 246 101 26 245 79 20 249 98 24 253 105 25 254 110 27 255 112 27 255 111 27 255 109 27 255 106 26 255 105 26 255 110 27 255 119 30 255 129 32 255 140 35 255 151 38 255 159 40 255 165 41 255 168 41 255 170 42 255 171 42 255 171 43 254 174 43 255 169 41 254 159 39 253 148 36 251 137 33 250 123 31 248 109 27 245 94 23 243 85 21 242 77 19 241 71 17 241 69 17 240 69 16 238 67 16 238 67 17 239 67 17 239 65 16 238 64 15 237 64 16 236 63 15 235 61 15 234 59 15 
248 117 30 244 83 21 245 83 21 249 99 24 251 104 25 254 110 27 255 112 28 254 112 28 255 111 27 255 110 27 255 109 27 255 108 27 255 107 27 255 107 26 255 107 27 255 112 28 255 118 29 255 122 30 255 126 31 255 129 32 255 132 32 255 134 33 255 136 34 254 131 33 253 121 29 250 111 26 249 99 24 246 88 22 244 81 20 243 78 19 242 78 19 242 76 19 240 73 18 240 70 17 240 69 16 239 67 17 238 65 17 240 65 16 238 64 16 237 63 16 237 63 15 237 62 15 236 59 15 234 58 15 
244 93 23 242 75 19 246 88 22 249 97 24 251 103 25 254 109 27 254 112 27 255 112 28 255 111 28 255 112 28 255 112 28 255 111 28 255 110 27 255 108 27 255 107 26 255 107 27 255 107 26 255 107 26 255 108 27 255 108 27 254 109 27 254 110 27 255 110 28 254 106 27 251 98 24 249 91 22 246 85 21 245 85 21 245 85 21 243 83 21 243 79 19 242 76 18 240 73 18 239 70 17 239 68 16 239 66 17 239 65 16 239 63 15 238 62 16 237 62 15 236 62 15 236 60 14 236 58 15 234 57 14 
241 78 19 242 74 19 247 90 22 249 95 23 250 101 25 253 107 26 254 112 27 255 112 28 254 112 27 255 111 28 255 112 27 255 112 28 255 112 28 255 112 28 255 112 28 255 112 28 255 110 27 255 109 27 255 109 27 255 108 27 255 108 27 255 109 26 254 106 26 253 100 25 250 95 24 248 93 23 247 94 23 246 95 24 246 91 22 243 85 21 242 78 18 241 73 18 240 71 18 239 68 17 240 66 16 240 65 16 239 64 15 238 62 16 238 61 15 237 61 15 237 61 14 236 58 15 235 57 14 233 55 14 
239 71 18 242 77 19 246 88 22 248 93 23 249 98 24 252 104 25 254 109 27 255 112 27 255 112 28 255 112 28 255 111 28 255 112 28 255 112 28 255 112 28 255 111 28 255 112 27 255 112 28 255 112 28 255 112 28 254 112 28 255 112 28 255 111 27 254 107 26 252 102 25 250 102 25 248 103 25 248 102 25 246 96 24 245 87 21 242 80 19 241 75 18 240 71 17 239 69 17 239 67 17 239 64 16 239 64 15 238 62 16 238 61 15 238 60 15 237 60 14 236 59 15 236 58 14 234 56 14 234 53 14 
238 70 17 242 78 19 245 85 21 247 91 23 248 95 23 251 100 25 253 106 26 254 110 27 255 112 28 255 112 28 254 112 27 255 111 28 255 111 28 255 111 28 255 111 28 255 111 28 255 111 27 254 112 28 255 112 28 255 111 27 255 111 27 254 108 26 253 105 26 251 108 27 249 110 27 248 107 26 248 98 25 245 89 22 243 83 20 242 78 19 241 73 18 240 69 17 239 67 17 239 65 16 238 63 15 238 63 16 237 60 15 237 61 15 238 60 14 237 59 15 236 58 14 235 57 14 235 56 13 233 52 13 
238 68 17 242 77 20 243 81 21 246 87 22 248 93 23 250 97 24 251 102 25 254 107 27 255 110 28 254 112 27 255 112 28 255 112 28 254 112 27 254 112 27 255 112 27 254 112 28 255 112 28 255 112 27 254 112 27 254 110 27 254 108 26 253 110 27 252 114 29 250 115 28 249 108 26 248 99 25 246 91 23 244 85 20 242 80 19 242 75 19 241 71 18 240 68 17 239 65 16 238 63 15 237 62 15 237 61 15 238 60 14 238 60 14 238 59 15 236 57 15 235 56 14 236 55 13 235 54 13 231 52 11 
237 67 17 241 75 19 243 79 20 245 84 21 247 89 23 248 93 23 250 98 23 252 102 25 253 106 26 254 110 27 255 112 28 255 113 28 254 113 27 254 113 27 255 113 27 254 113 28 255 112 28 255 110 27 254 107 26 253 108 27 253 115 28 252 121 30 251 118 29 249 108 27 248 99 25 246 93 22 244 88 20 243 82 19 243 77 20 241 73 19 240 70 17 239 66 16 238 63 15 237 62 15 237 61 14 238 59 15 238 59 15 238 59 14 237 57 15 236 56 14 236 55 13 235 54 13 233 52 12 231 49 11 
237 67 17 240 73 18 242 77 19 244 81 20 246 86 22 248 90 23 249 94 23 250 97 24 251 100 25 252 104 26 253 108 26 254 110 27 255 110 28 255 111 28 255 111 28 255 109 27 254 107 26 253 108 27 253 113 28 253 120 30 252 123 31 251 114 28 249 108 26 249 101 25 247 94 23 245 88 21 243 84 20 242 78 19 241 73 19 241 70 17 239 67 17 238 64 16 237 62 15 237 61 14 238 59 14 238 58 14 237 57 14 236 56 15 236 56 14 236 55 14 235 54 13 234 53 13 232 50 12 231 48 11 
236 66 17 239 71 18 241 74 18 243 78 19 244 81 21 246 86 22 248 89 22 249 92 23 249 95 24 250 99 24 252 102 25 252 104 26 252 104 25 253 103 25 252 102 25 253 105 25 253 111 27 252 118 29 251 122 30 251 118 30 250 112 29 248 106 25 248 100 24 248 95 23 246 89 21 243 84 21 243 79 21 242 74 20 241 70 18 240 67 17 238 64 16 237 62 15 237 61 15 238 59 14 237 57 15 237 57 15 236 56 15 236 56 14 237 55 14 236 54 13 235 53 13 234 51 12 232 48 12 230 46 11 
236 65 16 238 68 17 240 71 17 242 75 18 242 78 20 244 82 20 246 85 21 247 88 22 247 91 23 248 93 23 249 94 23 250 94 23 250 96 23 251 101 25 251 106 26 251 113 27 251 118 29 251 118 29 250 115 29 250 109 27 249 104 26 247 99 24 246 93 23 246 88 21 244 84 21 242 79 20 242 74 19 241 71 18 240 67 17 239 65 16 238 63 15 237 61 15 238 60 14 237 58 15 237 57 15 236 56 15 235 55 14 236 54 14 236 54 13 235 53 13 234 51 12 233 49 13 232 48 12 229 45 12 
234 62 15 236 64 16 238 67 16 240 70 17 240 73 19 242 75 18 244 77 19 245 80 20 245 83 21 246 87 22 247 91 22 248 95 23 248 101 24 249 109 27 250 114 28 250 115 29 249 114 29 249 110 28 249 104 26 249 101 25 248 97 24 246 92 22 245 87 21 244 82 21 243 79 20 242 75 19 241 71 17 240 69 16 239 65 16 238 63 15 238 62 15 238 60 14 237 58 15 237 57 15 236 56 14 235 55 14 236 54 14 236 53 13 235 52 13 235 51 12 234 50 13 232 48 12 231 46 12 228 45 11 
234 62 15 235 64 16 237 66 16 239 69 17 240 71 18 241 73 18 242 76 19 244 79 20 245 84 21 246 90 22 247 98 24 248 104 26 248 109 27 248 112 27 249 111 27 249 107 27 247 103 26 247 99 25 248 97 24 246 94 23 246 90 21 244 85 20 243 81 20 242 78 20 242 74 19 241 71 17 240 68 16 239 66 16 238 63 15 237 61 14 238 60 14 237 58 15 237 56 15 236 55 14 235 56 14 236 54 13 237 53 13 235 52 13 234 51 12 234 50 13 234 49 12 232 47 12 229 44 11 227 42 10 
238 75 18 238 76 18 240 75 18 241 76 19 242 81 19 242 82 20 243 85 22 245 90 23 246 95 23 246 101 24 247 104 26 247 105 26 247 103 25 247 101 24 247 99 25 247 97 24 247 95 23 246 91 22 246 89 23 244 87 21 243 83 19 243 79 19 243 76 19 242 74 19 240 71 17 239 68 16 239 65 16 237 63 15 237 61 14 238 59 14 237 58 15 237 57 15 236 55 14 235 54 14 235 54 13 236 53 13 236 51 12 234 51 12 233 51 13 234 50 13 233 48 12 230 45 11 228 43 10 225 40 10 
243 90 23 243 90 22 244 89 22 244 90 23 245 93 24 245 94 24 244 95 23 245 95 23 245 95 23 245 95 23 245 93 22 245 93 22 245 94 22 244 93 23 244 92 23 244 90 22 244 87 21 244 85 21 243 83 20 243 80 19 241 77 19 241 74 20 241 72 18 241 69 17 240 67 16 239 64 16 237 63 15 238 60 14 238 59 14 238 58 15 237 57 15 236 56 15 235 55 14 236 54 13 236 53 13 235 52 12 233 52 12 233 50 13 234 49 13 233 48 12 232 46 11 230 43 10 227 41 10 224 38 8 
241 84 22 242 87 22 242 87 21 242 87 22 244 87 23 244 88 22 244 88 22 244 87 22 244 87 21 244 88 21 245 88 22 245 88 22 245 87 22 244 86 22 244 85 21 244 84 21 244 82 20 243 80 19 242 78 18 241 75 19 241 73 19 241 71 18 240 68 17 239 66 16 239 64 16 238 62 15 237 61 14 238 58 14 238 57 14 237 57 15 236 56 15 235 54 14 235 54 14 236 53 13 235 51 12 234 51 12 234 51 12 234 49 13 233 47 12 232 46 11 230 44 11 227 41 10 225 39 9 225 40 9 
240 82 21 241 85 22 241 84 22 241 83 21 242 83 21 243 84 21 243 83 21 243 83 20 243 83 20 243 83 20 244 83 21 243 82 21 243 81 21 243 81 20 243 80 20 243 78 19 242 77 18 241 76 18 241 74 18 241 71 18 241 69 18 241 67 16 238 66 17 238 64 15 238 62 15 238 60 15 238 58 14 237 57 15 236 57 15 236 56 14 236 55 14 235 54 14 236 53 13 235 51 13 234 50 12 234 50 13 234 49 13 233 47 12 232 46 11 230 43 11 228 41 10 226 40 9 224 39 9 223 37 10 
240 79 21 240 83 22 240 82 21 241 81 21 242 80 20 241 81 20 242 81 20 242 81 20 242 80 19 242 80 20 242 79 20 242 78 20 242 78 19 242 77 19 241 75 18 241 74 18 240 73 18 240 72 17 240 69 17 240 67 17 240 66 16 238 65 15 238 63 15 237 62 15 237 60 14 238 59 14 237 57 15 236 56 15 235 56 14 235 54 13 236 53 14 236 53 13 235 52 13 234 50 12 233 50 13 234 50 12 233 48 12 231 46 11 231 44 10 229 42 10 227 40 10 225 39 10 224 39 9 209 22 5 
239 77 20 239 81 22 239 81 20 240 80 20 240 78 20 240 78 19 241 79 19 241 79 19 241 77 20 241 77 19 241 76 19 241 75 19 241 75 18 241 73 17 240 71 17 240 70 17 240 70 18 239 68 17 240 66 17 239 65 16 238 64 15 237 63 16 237 61 15 238 60 14 238 59 15 237 57 15 236 56 14 235 56 14 235 54 13 236 53 14 235 52 13 235 51 13 234 50 12 233 50 13 234 49 13 233 48 13 231 47 11 230 45 10 229 42 10 226 40 9 226 40 10 225 39 10 215 29 7 192 7 1 
238 74 19 239 81 21 239 80 21 239 79 19 239 77 19 239 76 18 240 76 18 240 77 19 240 76 19 240 75 18 240 74 18 240 73 18 240 72 17 240 70 16 239 69 16 239 68 17 240 67 17 239 65 16 239 64 16 239 64 15 237 62 16 238 61 15 238 59 15 237 59 14 237 58 15 236 56 14 235 55 14 236 55 13 236 53 14 235 52 13 234 51 13 234 50 12 234 50 13 233 49 12 233 48 12 231 45 12 230 44 10 229 43 9 227 40 9 225 39 9 225 39 10 219 32 8 199 12 2 184 1 0 
236 74 17 239 79 20 239 79 21 239 78 19 238 77 19 238 76 18 239 74 19 239 74 19 239 74 18 239 73 17 239 72 17 239 71 17 239 70 16 239 68 16 238 67 17 239 66 17 239 65 16 239 64 15 238 63 15 238 62 15 238 60 15 237 59 14 237 58 14 236 57 15 236 56 14 235 55 14 235 54 13 236 53 14 235 52 13 234 51 13 233 50 12 233 50 13 233 49 12 232 48 12 231 45 11 229 43 10 229 42 9 227 40 9 224 39 10 225 40 10 220 34 8 203 17 4 185 1 0 183 3 0 
235 73 17 237 76 18 238 77 19 239 76 20 238 76 20 238 75 19 238 74 18 238 72 18 238 72 18 239 72 17 238 71 17 238 70 16 238 68 17 238 67 16 239 66 17 238 65 16 238 64 16 237 63 15 236 62 15 237 60 14 237 59 14 236 58 14 236 58 15 235 56 14 235 55 14 236 54 13 235 53 13 235 52 13 234 51 12 233 50 12 233 50 13 232 49 13 232 47 12 231 45 11 229 43 10 228 41 9 226 40 9 224 38 10 225 38 10 222 36 10 206 20 5 187 2 0 181 2 0 179 5 1 
235 74 17 235 71 16 237 78 19 238 75 20 237 73 19 237 74 20 237 74 18 237 72 17 238 70 18 239 69 17 238 69 16 237 67 17 237 66 17 237 66 17 238 65 17 238 64 16 236 63 15 236 62 15 237 61 14 236 59 15 236 58 15 236 58 15 235 56 15 235 55 14 236 55 13 235 54 13 234 52 12 233 51 12 231 50 13 232 50 13 232 49 13 231 47 12 230 45 11 229 44 10 228 42 9 225 40 9 223 39 10 224 38 10 223 37 10 206 21 5 188 4 1 181 1 0 180 5 1 173 3 1 
234 79 19 232 66 16 236 76 19 237 74 19 237 73 19 237 72 20 237 72 19 237 71 18 237 69 17 237 69 16 236 68 16 236 66 16 237 64 17 237 64 17 237 64 16 237 63 16 236 62 15 235 61 14 236 59 14 236 58 14 236 58 15 235 56 15 235 55 14 235 54 14 234 53 13 233 51 12 232 50 12 232 50 12 232 49 13 231 48 13 230 46 12 228 45 11 227 44 10 226 42 9 225 40 9 224 38 10 225 38 11 223 38 10 205 20 5 188 5 1 181 1 0 181 5 1 175 4 1 166 3 1 
238 93 23 231 67 17 233 70 18 234 74 18 235 73 17 235 72 18 236 70 18 236 68 17 236 68 16 235 67 16 235 67 16 236 66 17 236 65 17 236 64 16 235 62 16 236 61 15 236 60 15 235 59 14 235 58 14 234 58 15 234 56 15 234 54 14 233 53 14 232 52 13 232 51 13 232 50 12 231 50 13 231 49 13 230 48 12 227 46 12 228 44 11 228 44 11 226 42 10 224 39 9 223 38 10 224 39 10 222 36 9 204 19 5 188 5 1 181 2 0 178 4 0 173 4 1 165 4 0 159 4 0 
242 112 28 230 71 18 228 62 15 233 73 17 233 71 16 232 70 16 234 69 16 235 67 16 235 66 17 235 66 17 235 65 17 235 65 16 234 64 16 233 62 16 234 60 15 234 60 15 233 59 14 233 58 14 233 57 15 232 57 15 232 55 14 232 53 14 231 52 13 231 52 13 231 51 12 231 49 13 230 48 12 228 47 12 228 46 11 227 44 11 227 43 11 225 41 10 223 39 9 222 39 9 223 40 10 218 34 8 202 18 4 186 4 1 180 2 0 177 4 0 172 4 1 165 4 0 158 3 0 152 2 0 
252 133 34 234 87 22 224 58 14 230 68 16 231 69 16 230 68 15 232 67 15 233 66 16 233 65 16 233 65 16 234 64 16 233 63 16 232 62 15 232 60 15 233 59 15 232 59 14 232 58 14 232 57 15 232 56 14 231 55 14 231 53 13 231 52 13 230 51 13 230 51 12 230 49 13 228 47 12 227 46 12 226 45 11 226 43 11 225 42 10 223 40 10 222 39 9 222 40 9 221 38 9 212 30 7 197 15 3 183 4 0 178 3 0 176 4 0 171 4 1 165 4 0 159 3 0 152 2 0 144 1 0 
255 133 34 245 111 28 226 68 16 223 58 13 229 67 16 229 65 16 229 65 16 230 65 16 231 64 15 231 63 15 231 62 15 231 62 15 231 60 15 232 59 15 232 58 15 231 57 15 231 56 15 231 55 15 231 54 14 231 52 13 230 52 13 229 51 13 229 49 13 228 48 12 228 47 12 226 45 12 224 44 11 224 42 10 223 41 10 222 40 9 221 40 9 220 40 9 217 36 8 208 26 6 193 12 3 180 1 0 176 2 0 174 5 0 169 4 1 163 3 0 158 3 0 152 2 0 143 1 0 133 1 0 
240 99 25 250 119 29 237 90 22 220 54 13 225 61 15 227 63 16 227 63 15 227 63 15 228 62 15 229 60 14 229 60 14 229 59 14 230 59 14 230 58 14 230 56 14 230 54 14 230 54 14 229 53 14 229 52 13 228 51 12 228 50 12 227 48 12 226 47 12 225 45 12 225 44 11 224 43 10 222 42 9 221 41 10 220 40 9 219 39 8 218 38 8 212 32 7 200 20 4 185 7 1 176 0 0 176 3 0 174 5 1 168 4 1 162 3 0 156 3 0 150 2 0 142 1 0 131 1 0 122 1 0 
215 53 12 236 87 21 246 103 25 228 70 17 218 52 13 224 60 15 224 60 15 225 59 14 225 58 14 225 58 14 225 58 13 226 56 13 226 55 13 227 55 13 227 54 13 226 52 13 226 52 12 226 51 12 225 50 12 225 49 10 224 47 10 223 46 10 223 45 10 222 44 10 221 43 10 220 41 9 219 39 10 218 39 9 217 38 8 213 35 7 203 25 6 190 11 2 179 2 0 173 1 0 173 4 1 170 5 1 166 4 1 160 4 0 155 3 0 147 2 0 139 1 0 130 1 0 122 1 0 120 2 1 
208 46 10 212 51 12 227 72 18 234 82 21 219 57 15 217 54 14 220 56 13 221 56 13 221 55 14 222 54 13 223 55 12 222 54 12 223 53 12 223 53 12 224 52 13 223 50 12 222 49 12 223 48 11 222 47 10 221 45 11 220 44 11 221 44 11 219 42 11 218 41 10 217 40 9 217 41 9 218 40 9 212 36 8 202 25 5 189 12 2 180 3 0 175 2 0 174 3 0 171 5 1 167 4 0 163 3 0 157 4 1 152 3 0 145 2 0 135 1 0 125 0 0 123 1 0 126 3 1 111 4 0 
